<?xml version="1.0" encoding="UTF-8"?>
<!-- Generator: Adobe Illustrator 16.0.0, SVG Export Plug-In . SVG Version: 6.00 Build 0)  -->
<!DOCTYPE svg PUBLIC "-//W3C//DTD SVG 1.1//EN" "http://www.w3.org/Graphics/SVG/1.1/DTD/svg11.dtd">
<svg version="1.1" id="Layer_1" xmlns="http://www.w3.org/2000/svg" xmlns:xlink="http://www.w3.org/1999/xlink" x="0px" y="0px" width="113.6px" height="61.6px" viewBox="0 0 113.6 61.6" enable-background="new 0 0 113.6 61.6" xml:space="preserve">
<g>
	<path fill="#BFC633" d="M105.3,44.8L105.3,44.8c0-0.4,0-0.8,0-1.2c0-8.9-7.2-16.2-16.1-16.4c0.4-1.7,0.6-3.4,0.6-5.2   c0-12.2-9.9-22-22-22C56.7,0,47.5,8.2,46,18.9c-3.4-5-9.2-8.3-15.7-8.3c-10.5,0-19,8.5-19,19c0,1.9,0.3,3.7,0.8,5.4   C5.3,35.6,0,41.3,0,48.3c0,7.4,6,13.3,13.3,13.3h28.5h48.5h14.9c4.6,0,8.4-3.8,8.4-8.4C113.7,48.6,110,44.8,105.3,44.8z"/>
	<path fill="#8B9C3A" d="M78.4,48.7c-0.9,0-1.7,0.2-2.5,0.5c0.3-1.2,0.5-2.5,0.5-3.9c0-9-7.3-16.3-16.3-16.3C52,29,45.3,35,44,42.7   c-1.8-1.5-4.2-2.5-6.8-2.5c-5.9,0-10.6,4.8-10.6,10.6c0,4.8,3.2,8.9,7.6,10.2v0.4h44.2c3.6,0,6.5-2.9,6.5-6.5   C84.9,51.3,82,48.7,78.4,48.7z"/>
</g>
</svg>