<?xml version="1.0" encoding="UTF-8"?>
<!-- Generator: Adobe Illustrator 16.0.0, SVG Export Plug-In . SVG Version: 6.00 Build 0)  -->
<!DOCTYPE svg PUBLIC "-//W3C//DTD SVG 1.1//EN" "http://www.w3.org/Graphics/SVG/1.1/DTD/svg11.dtd">
<svg version="1.1" id="Layer_1" xmlns="http://www.w3.org/2000/svg" xmlns:xlink="http://www.w3.org/1999/xlink" x="0px" y="0px" width="124.4px" height="61.6px" viewBox="0 0 124.4 61.6" enable-background="new 0 0 124.4 61.6" xml:space="preserve">
<g>
	<path fill="#BFC633" d="M105.3,44.8C105.2,44.8,105.2,44.8,105.3,44.8c0-0.4,0-0.8,0-1.2c0-8.9-7.2-16.2-16.1-16.4   c0.4-1.7,0.6-3.4,0.6-5.2c0-12.2-9.9-22-22-22C56.7,0,47.5,8.2,46,18.9c-3.4-5-9.2-8.3-15.7-8.3c-10.5,0-19,8.5-19,19   c0,1.9,0.3,3.7,0.8,5.4C5.3,35.6,0,41.3,0,48.3c0,7.4,6,13.3,13.3,13.3h28.5h48.5h14.9c4.6,0,8.4-3.8,8.4-8.4   C113.7,48.6,109.9,44.8,105.3,44.8z"/>
	<path fill="#798034" d="M124.4,56.7c0-2.7-2.2-4.9-4.9-4.9c0,0,0,0-0.1,0c0-0.1,0-0.1,0-0.2c0-5.6-4.5-10.1-10.1-10.1   c-3.8,0-7.1,2.1-8.8,5.2c-1.1-0.6-2.4-0.9-3.7-0.9c-4.4,0-7.9,3.6-7.9,7.9c0,4.3,3.6,7.9,7.9,7.9h22.8l0,0   C122.2,61.5,124.4,59.3,124.4,56.7z"/>
	<path fill="#8B9C3A" d="M74.4,46.4c-0.8,0-1.5,0.1-2.2,0.3c1.2-1.7,1.9-3.8,1.9-6c0-5.7-4.6-10.3-10.3-10.3c-3.7,0-6.9,1.9-8.7,4.8   c-3-5.7-9-9.5-15.9-9.5c-9.6,0-17.4,7.5-17.9,17c-0.7-0.2-1.4-0.3-2.2-0.3c-5.3,0-9.6,4.3-9.6,9.6s4.3,9.6,9.6,9.6   c0.3,0,0.6,0,0.9,0l0,0h19.2h36.7v-0.1c3.5-0.7,6.2-3.7,6.2-7.5C82,49.8,78.6,46.4,74.4,46.4z"/>
</g>
</svg>