<?xml version="1.0" encoding="UTF-8"?>
<!-- Generator: Adobe Illustrator 16.0.0, SVG Export Plug-In . SVG Version: 6.00 Build 0)  -->
<!DOCTYPE svg PUBLIC "-//W3C//DTD SVG 1.1//EN" "http://www.w3.org/Graphics/SVG/1.1/DTD/svg11.dtd">
<svg version="1.1" id="Layer_1" xmlns="http://www.w3.org/2000/svg" xmlns:xlink="http://www.w3.org/1999/xlink" x="0px" y="0px" width="152.5px" height="53px" viewBox="0 0 152.5 53" enable-background="new 0 0 152.5 53" xml:space="preserve">
<g>
	<path fill="#8B9C3A" d="M104.6,40.3C104.5,40.3,104.5,40.3,104.6,40.3c-0.4-6.2-5.5-11.1-11.8-11.1c-1.8,0-3.6,0.4-5.1,1.2   c0.3-1.4,0.5-2.8,0.5-4.2c0-10.5-8.5-19-19-19c-3.6,0-7,1-9.8,2.8C55.5,4,48.7,0,40.9,0c-12.2,0-22,9.9-22,22c0,1,0.1,2.1,0.2,3.1   c-6,0.2-10.9,5.1-10.9,11.2c0,1.1,0.2,2.1,0.4,3.1c-0.5-0.1-1.1-0.2-1.7-0.2c-3.8,0-6.9,3.1-6.9,6.9C0,49.9,3.1,53,6.9,53l0,0h24.2   h29.1h26h7.7h10.7c3.5,0,6.3-2.8,6.3-6.3C110.8,43.1,108,40.3,104.6,40.3z"/>
	<path fill="#BFC633" d="M146.2,40.3L146.2,40.3c-0.4-6.2-5.5-11.1-11.8-11.1c-1.8,0-3.6,0.4-5.1,1.2c0.3-1.4,0.5-2.8,0.5-4.2   c0-10.5-8.5-19-19-19c-3.6,0-7,1-9.8,2.8C97.1,4,90.3,0,82.5,0c-12.2,0-22,9.9-22,22c0,1,0.1,2.1,0.2,3.1   c-6,0.2-10.9,5.1-10.9,11.2c0,1.1,0.2,2.1,0.4,3.1c-0.5-0.1-1.1-0.2-1.7-0.2c-3.8,0-6.9,3.1-6.9,6.9c0,3.8,3.1,6.9,6.9,6.9l0,0   h24.2h29.1h26h7.7h10.7c3.5,0,6.3-2.8,6.3-6.3C152.5,43.1,149.7,40.3,146.2,40.3z"/>
</g>
</svg>