<?xml version="1.0" encoding="UTF-8"?>
<!-- Generator: Adobe Illustrator 16.0.0, SVG Export Plug-In . SVG Version: 6.00 Build 0)  -->
<!DOCTYPE svg PUBLIC "-//W3C//DTD SVG 1.1//EN" "http://www.w3.org/Graphics/SVG/1.1/DTD/svg11.dtd">
<svg version="1.1" id="Layer_1" xmlns="http://www.w3.org/2000/svg" xmlns:xlink="http://www.w3.org/1999/xlink" x="0px" y="0px" width="202.1px" height="231.3px" viewBox="0 0 202.1 231.3" enable-background="new 0 0 202.1 231.3" xml:space="preserve">
<g>
	<g>
		<path fill="#BFC632" d="M166.8,96.9c-0.3,0-0.6,0-0.9,0c3.2-8.1,5-16.9,5-26.2c0-39-31.6-70.7-70.7-70.7    c-39,0-70.7,31.6-70.7,70.7c0,0.5,0,1,0,1.4C12.1,79.9,0,97.4,0,117.6c0,27.6,22.4,49.9,49.9,49.9l0,0h116.8l0,0l0,0    c19.5,0,35.4-15.8,35.4-35.4C202.2,112.7,186.3,96.9,166.8,96.9z"/>
		<g>
			<line fill="none" stroke="#675332" stroke-width="14" stroke-miterlimit="10" x1="103.5" y1="106" x2="103.5" y2="221.1"/>
		</g>
		<line fill="none" stroke="#675332" stroke-width="9.4884" stroke-miterlimit="10" x1="45.4" y1="106" x2="102.6" y2="127.5"/>
		<line fill="none" stroke="#675332" stroke-width="9.4884" stroke-miterlimit="10" x1="103.5" y1="143" x2="152.2" y2="130.5"/>
		<path fill="#8C9B0A" d="M132.5,225.7c0-3-2.4-5.4-5.4-5.4c-1.3,0-2.5,0.5-3.5,1.3c-0.1-5.1-4.3-9.1-9.3-9.1    c-2.4,0-4.7,0.9-6.3,2.5c-0.9-4.2-4.6-7.4-9.1-7.4c-5.1,0-9.2,4.1-9.2,9.2c0,0.2,0,0.4,0,0.6c-1.5,0.7-2.5,2.2-2.5,4    c-0.8-0.5-1.8-0.8-2.9-0.8c-2.9,0-5.3,2.4-5.3,5.3c-0.4-0.2-0.9-0.4-1.4-0.4c-1.6,0-2.9,1.3-2.9,2.9c0,1.4,1,2.6,2.4,2.8v0.1h6.5    h6h37.5l0,0C130,231.1,132.5,228.7,132.5,225.7z"/>
		<path fill="#797F00" d="M143.6,226.9c-0.3,0-0.6,0.1-0.9,0.2c0-0.1,0-0.3,0-0.4c0-2.4-2-4.4-4.4-4.4c-0.9,0-1.8,0.3-2.5,0.8    c-0.7-2.9-3.3-5.1-6.4-5.1c-3.5,0-6.3,2.7-6.5,6.1c-1.6,0.4-2.7,1.7-2.7,3.4c0,1.9,1.5,3.5,3.4,3.5l0,0h19.9    c1.1,0,2.1-0.9,2.1-2.1C145.7,227.9,144.7,226.9,143.6,226.9z"/>
	</g>
	<g>
		<g>
			<line fill="none" stroke="#CC3E3E" stroke-width="1.3" stroke-miterlimit="10" x1="136.9" y1="123.1" x2="136.9" y2="131.2"/>
			<line fill="none" stroke="#CC3E3E" stroke-width="1.3" stroke-miterlimit="10" x1="133.4" y1="123.1" x2="133.4" y2="131.2"/>
		</g>
		<polygon fill="#CC3E3E" points="141,102.3 141,106.5 145.2,102.3   "/>
		<path fill="#483D59" d="M134.5,102.3c-1.7,0-3.2,0.8-4.2,2L119.7,124H141v-21.7C141,102.3,134.6,102.3,134.5,102.3z M139,104.6    c-0.4,0-0.7-0.3-0.7-0.7s0.3-0.7,0.7-0.7c0.3,0,0.5,0.2,0.6,0.4c0,0.1,0,0.2,0,0.2v0.2C139.5,104.4,139.3,104.6,139,104.6z"/>
		<path fill="#663A35" d="M139.6,103.7v0.5c0-0.1,0-0.2,0-0.2S139.6,103.8,139.6,103.7z"/>
		<path id="birdFlap1" fill="#67C3CB" d="M134.7,112.6c0-0.7-0.1-1.3-0.2-1.9c-0.8-2.4-2.5-4.3-4.7-5.4l-7.4,13.7    c1.3,0.9,2.8,1.4,4.5,1.4C131.2,120.5,134.7,117,134.7,112.6z">

<animate attributeName="d" attributeType="XML" fill="remove" restart="always" calcMode="linear" additive="replace" accumulate="none" repeatDur="indefinite" dur="1.5s" values="M134.7,112.6c0-0.7-0.1-1.3-0.2-1.9c-0.8-2.4-2.5-4.3-4.7-5.4l-7.4,13.7    c1.3,0.9,2.8,1.4,4.5,1.4C131.2,120.5,134.7,117,134.7,112.6z;     M132.4,113.7c0.2-0.6,0.3-1.3,0.3-1.9c0-2.5-1.1-4.9-2.9-6.5l-11.2,10.9    c1,1.2,2.3,2.2,3.9,2.7C126.7,120.2,131.1,117.9,132.4,113.7z;     M127.5,113.8c0.5-0.4,0.9-0.9,1.3-1.4c1.3-2.1,1.7-4.7,1.1-7.1l-15.3,3.2    c0.1,1.6,0.7,3.1,1.8,4.4C119.2,116.2,124.2,116.6,127.5,113.8z;     M125.8,112.9c0.6-0.3,1.1-0.6,1.6-1c1.8-1.7,2.9-4.1,2.9-6.5l-15.6-1    c-0.3,1.5-0.1,3.2,0.6,4.7C117.2,113,121.8,114.8,125.8,112.9z;        M127.5,113.8c0.5-0.4,0.9-0.9,1.3-1.4c1.3-2.1,1.7-4.7,1.1-7.1l-15.3,3.2    c0.1,1.6,0.7,3.1,1.8,4.4C119.2,116.2,124.2,116.6,127.5,113.8z;        M132.4,113.7c0.2-0.6,0.3-1.3,0.3-1.9c0-2.5-1.1-4.9-2.9-6.5l-11.2,10.9    c1,1.2,2.3,2.2,3.9,2.7C126.7,120.2,131.1,117.9,132.4,113.7z;     M134.7,112.6c0-0.7-0.1-1.3-0.2-1.9c-0.8-2.4-2.5-4.3-4.7-5.4l-7.4,13.7    c1.3,0.9,2.8,1.4,4.5,1.4C131.2,120.5,134.7,117,134.7,112.6z;        M134.7,112.6c0-0.7-0.1-1.3-0.2-1.9c-0.8-2.4-2.5-4.3-4.7-5.4l-7.4,13.7    c1.3,0.9,2.8,1.4,4.5,1.4C131.2,120.5,134.7,117,134.7,112.6z;        M134.7,112.6c0-0.7-0.1-1.3-0.2-1.9c-0.8-2.4-2.5-4.3-4.7-5.4l-7.4,13.7    c1.3,0.9,2.8,1.4,4.5,1.4C131.2,120.5,134.7,117,134.7,112.6z;">
		</animate>

		</path>
		<circle fill="#FFFFFF" cx="139" cy="104" r="0.7"/>
<!-- 		<path id="birdFlap2" fill="#67C3CB" d="M132.4,113.7c0.2-0.6,0.3-1.3,0.3-1.9c0-2.5-1.1-4.9-2.9-6.5l-11.2,10.9
			c1,1.2,2.3,2.2,3.9,2.7C126.7,120.2,131.1,117.9,132.4,113.7z"/>
		<path id="birdFlap3" fill="#67C3CB" d="M127.5,113.8c0.5-0.4,0.9-0.9,1.3-1.4c1.3-2.1,1.7-4.7,1.1-7.1l-15.3,3.2
			c0.1,1.6,0.7,3.1,1.8,4.4C119.2,116.2,124.2,116.6,127.5,113.8z"/>
		<path id="birdFlap4" fill="#67C3CB" d="M125.8,112.9c0.6-0.3,1.1-0.6,1.6-1c1.8-1.7,2.9-4.1,2.9-6.5l-15.6-1
			c-0.3,1.5-0.1,3.2,0.6,4.7C117.2,113,121.8,114.8,125.8,112.9z"/> -->
	</g>
</g>
</svg>