<?xml version="1.0" encoding="UTF-8"?>
<!-- Generator: Adobe Illustrator 16.0.0, SVG Export Plug-In . SVG Version: 6.00 Build 0)  -->
<!DOCTYPE svg PUBLIC "-//W3C//DTD SVG 1.1//EN" "http://www.w3.org/Graphics/SVG/1.1/DTD/svg11.dtd">
<svg version="1.1" id="Layer_1" xmlns="http://www.w3.org/2000/svg" xmlns:xlink="http://www.w3.org/1999/xlink" x="0px" y="0px" width="202.1px" height="231.3px" viewBox="0 0 202.1 231.3" enable-background="new 0 0 202.1 231.3" xml:space="preserve">
<g>
	<g>
		<path fill="#BFC632" d="M166.8,96.8c-0.3,0-0.6,0-0.9,0c3.2-8.1,5-16.9,5-26.2c0-39-31.6-70.7-70.7-70.7    c-39,0-70.7,31.6-70.7,70.7c0,0.5,0,1,0,1.4C12.1,79.8,0,97.3,0,117.5c0,27.6,22.4,49.9,49.9,49.9l0,0h116.8l0,0l0,0    c19.5,0,35.4-15.8,35.4-35.4C202.2,112.6,186.3,96.8,166.8,96.8z"/>
		<g>
			<line fill="none" stroke="#675332" stroke-width="14" stroke-miterlimit="10" x1="103.5" y1="105.9" x2="103.5" y2="221"/>
		</g>
		<line fill="none" stroke="#675332" stroke-width="9.4884" stroke-miterlimit="10" x1="45.4" y1="105.9" x2="102.6" y2="127.4"/>
		<line fill="none" stroke="#675332" stroke-width="9.4884" stroke-miterlimit="10" x1="103.5" y1="142.9" x2="152.1" y2="130.4"/>
		<path fill="#8C9B0A" d="M132.5,225.6c0-3-2.4-5.4-5.4-5.4c-1.3,0-2.5,0.5-3.5,1.3c-0.1-5.1-4.3-9.1-9.3-9.1    c-2.4,0-4.7,0.9-6.3,2.5c-0.9-4.2-4.6-7.4-9.1-7.4c-5.1,0-9.2,4.1-9.2,9.2c0,0.2,0,0.4,0,0.6c-1.5,0.7-2.5,2.2-2.5,4    c-0.8-0.5-1.8-0.8-2.9-0.8c-2.9,0-5.3,2.4-5.3,5.3c-0.4-0.2-0.9-0.4-1.4-0.4c-1.6,0-2.9,1.3-2.9,2.9c0,1.4,1,2.6,2.4,2.8v0.1h6.5    h6h37.5l0,0C130,231,132.5,228.6,132.5,225.6z"/>
		<path fill="#797F00" d="M143.6,226.8c-0.3,0-0.6,0.1-0.9,0.2c0-0.1,0-0.3,0-0.4c0-2.4-2-4.4-4.4-4.4c-0.9,0-1.8,0.3-2.5,0.8    c-0.7-2.9-3.3-5.1-6.4-5.1c-3.5,0-6.3,2.7-6.5,6.1c-1.6,0.4-2.7,1.7-2.7,3.4c0,1.9,1.5,3.5,3.4,3.5l0,0h19.9    c1.1,0,2.1-0.9,2.1-2.1C145.7,227.8,144.7,226.8,143.6,226.8z"/>
	</g>
	<g>
		<g>
			<line fill="none" stroke="#663A35" stroke-width="1.3" stroke-miterlimit="10" x1="136.9" y1="123" x2="136.9" y2="131.1"/>
			<line fill="none" stroke="#663A35" stroke-width="1.3" stroke-miterlimit="10" x1="133.4" y1="123" x2="133.4" y2="131.1"/>
		</g>
		<polygon fill="#663A35" points="141,102.2 141,106.4 145.2,102.2   "/>
		<path fill="#CC3E3E" d="M134.5,102.2c-1.7,0-3.2,0.8-4.2,2l-10.6,19.7H141v-21.7C141,102.2,134.6,102.2,134.5,102.2z M139,104.5    c-0.4,0-0.7-0.3-0.7-0.7c0-0.4,0.3-0.7,0.7-0.7c0.3,0,0.5,0.2,0.6,0.4c0,0.1,0,0.2,0,0.2v0.2C139.5,104.3,139.3,104.5,139,104.5z"/>
		<path fill="#663A35" d="M139.6,103.6v0.5c0-0.1,0-0.2,0-0.2S139.6,103.7,139.6,103.6z"/>
		<path fill="#663A35" d="M134.7,112.5c0-0.7-0.1-1.3-0.2-1.9c-0.8-2.4-2.5-4.3-4.7-5.4l-7.4,13.7c1.3,0.9,2.8,1.4,4.5,1.4    C131.2,120.4,134.7,116.9,134.7,112.5z"/>
		<circle fill="#FFFFFF" cx="139" cy="103.9" r="0.7"/>
	</g>
</g>
</svg>