<?xml version="1.0" encoding="UTF-8"?>
<!-- Generator: Adobe Illustrator 16.0.0, SVG Export Plug-In . SVG Version: 6.00 Build 0)  -->
<!DOCTYPE svg PUBLIC "-//W3C//DTD SVG 1.1//EN" "http://www.w3.org/Graphics/SVG/1.1/DTD/svg11.dtd">
<svg version="1.1" id="Layer_1" xmlns="http://www.w3.org/2000/svg" xmlns:xlink="http://www.w3.org/1999/xlink" x="0px" y="0px" width="171.5px" height="200.6px" viewBox="0 0 171.5 200.6" enable-background="new 0 0 171.5 200.6" xml:space="preserve">
<path fill="#BFC632" d="M143.4,73.8c1.8-5.5,2.8-11.4,2.8-17.5C146.2,25.2,121,0,89.9,0C58.8,0,33.6,25.2,33.6,56.3  c0,5.6,0.8,10.9,2.3,16C15.8,74.2,0,91.1,0,111.7c0,21.9,17.7,39.6,39.6,39.6h92.3c21.8,0,39.6-17.7,39.6-39.6  C171.5,93.8,159.6,78.8,143.4,73.8z"/>
<g id="treeCat">
	<path fill="none" stroke="#000000" stroke-width="3" stroke-linecap="round" stroke-linejoin="round" stroke-miterlimit="10" d="   M109.9,112.8c0,0,7.4,0,7.4,15.8v16.1c0,0-0.4,7,3.1,7"/>
	<ellipse cx="102.4" cy="140.6" rx="11.3" ry="9.6"/>
	<g>
		<path d="M111.2,145.1c0.4-0.3,0.9-0.1,0.9,0.4l0.5,5.6c0.1,0.5-0.3,0.8-0.8,0.6l-5.1-2.3c-0.5-0.2-0.5-0.7-0.1-1L111.2,145.1z"/>
	</g>
	<g>
		<path d="M93.6,145.1c-0.4-0.3-0.9-0.1-0.9,0.4l-0.5,5.6c-0.1,0.5,0.3,0.8,0.8,0.6l5.1-2.3c0.5-0.2,0.5-0.7,0.1-1L93.6,145.1z"/>
	</g>
	<g>
		<g>
			<circle fill="#FADD3A" cx="108.1" cy="141.3" r="3.2"/>
			
				<line id="catEye2" fill="none" stroke="#000000" stroke-width="1.1397" stroke-miterlimit="10" x1="108.1" y1="145.3" x2="108.1" y2="137.6">
			
				<animate fill="remove" accumulate="none" restart="always" dur="3s" additive="replace" calcMode="linear" attributeName="x1" values="108.1;111.3;104.9;108.1" repeatCount="indefinite">
				</animate>
			
				<animate fill="remove" accumulate="none" restart="always" dur="3s" additive="replace" calcMode="linear" attributeName="x2" values="108.1;111.3;104.9;108.1" repeatCount="indefinite">
				</animate>
			</line>
		</g>
		<g>
			<circle fill="#FADD3A" cx="96.6" cy="141.3" r="3.2"/>
			
				<line id="catEye1" fill="none" stroke="#000000" stroke-width="1.1397" stroke-miterlimit="10" x1="96.6" y1="145.3" x2="96.6" y2="137.6">
			
				<animate fill="remove" accumulate="none" restart="always" dur="3s" additive="replace" calcMode="linear" attributeName="x1" values="96.6;99.8;93.4;96.6" repeatCount="indefinite">
				</animate>
			
				<animate fill="remove" accumulate="none" restart="always" dur="3s" additive="replace" calcMode="linear" attributeName="x2" values="96.6;99.8;93.4;96.6" repeatCount="indefinite">
				</animate>
			</line>
		</g>
	</g>
	<g>
		
			<polyline fill="none" stroke="#F5F5F5" stroke-width="0.75" stroke-linecap="round" stroke-linejoin="round" stroke-miterlimit="10" points="    103.3,139.8 102.4,138.7 101.4,139.8   "/>
		
			<polyline fill="none" stroke="#F5F5F5" stroke-width="0.75" stroke-linecap="round" stroke-linejoin="round" stroke-miterlimit="10" points="    104.7,134.5 102.4,137.3 100.1,134.5   "/>
		
			<line fill="none" stroke="#F5F5F5" stroke-width="0.75" stroke-linecap="round" stroke-linejoin="round" stroke-miterlimit="10" x1="102.4" y1="137.3" x2="102.4" y2="138.7"/>
	</g>
	<polygon points="113.4,111.2 108.4,133.1 96.4,133.1 92.1,114.9  "/>
	
		<animateTransform type="translateY" fill="remove" accumulate="none" restart="always" dur="4s" additive="replace" calcMode="linear" attributeName="transform" attributeType="XML" values="0 0;0 0;0 -48;0 -48;0 -48;0 0;0 0;0 0;" repeatCount="indefinite">
		</animateTransform>
</g>
<rect x="84.7" y="63" transform="matrix(-0.9841 0.1776 -0.1776 -0.9841 233.3905 153.0325)" fill="#BFC632" width="50.3" height="47.9"/>
<g>
	<line fill="none" stroke="#876F3E" stroke-width="10" stroke-miterlimit="10" x1="78.5" y1="68.7" x2="78.5" y2="200.6"/>
	<g>
		<line fill="none" stroke="#876F3E" stroke-width="10" stroke-miterlimit="10" x1="78.2" y1="120.4" x2="53.1" y2="101.4"/>
		<line fill="none" stroke="#876F3E" stroke-width="10" stroke-miterlimit="10" x1="78.2" y1="105.6" x2="128.5" y2="95.6"/>
	</g>
</g>
<path fill="#8C9B0A" d="M101.9,195c0-3-2.4-5.4-5.4-5.4c-1.3,0-2.5,0.5-3.5,1.3c-0.1-5.1-4.3-9.1-9.3-9.1c-2.4,0-4.7,0.9-6.3,2.5  c-0.9-4.2-4.6-7.4-9.1-7.4c-5.1,0-9.2,4.1-9.2,9.2c0,0.2,0,0.4,0,0.6c-1.5,0.7-2.5,2.2-2.5,4c-0.8-0.5-1.8-0.8-2.9-0.8  c-2.9,0-5.3,2.4-5.3,5.3c-0.4-0.2-0.9-0.4-1.4-0.4c-1.6,0-2.9,1.3-2.9,2.9c0,1.4,1,2.6,2.4,2.8v0.1H53h6h37.5l0,0  C99.4,200.4,101.9,198,101.9,195z"/>
<path fill="#797F00" d="M113,196.2c-0.3,0-0.6,0.1-0.9,0.2c0-0.1,0-0.3,0-0.4c0-2.4-2-4.4-4.4-4.4c-0.9,0-1.8,0.3-2.5,0.8  c-0.7-2.9-3.3-5.1-6.4-5.1c-3.5,0-6.3,2.7-6.5,6.1c-1.6,0.4-2.7,1.7-2.7,3.4c0,1.9,1.5,3.5,3.4,3.5l0,0h19.9c1.1,0,2.1-0.9,2.1-2.1  C115.1,197.2,114.1,196.2,113,196.2z"/>
</svg>